<svg xmlns="http://www.w3.org/2000/svg" width="512" height="512" viewBox="0 0 512 512">
  <!-- Фон -->
  <rect width="512" height="512" rx="100" fill="#863bff"/>
  <!-- Книга — задняя обложка -->
  <rect x="130" y="110" width="230" height="295" rx="18" fill="#6b1fff"/>
  <!-- Страницы -->
  <rect x="148" y="118" width="210" height="278" rx="6" fill="#f5f0ff"/>
  <!-- Линии текста -->
  <rect x="175" y="165" width="155" height="10" rx="5" fill="#c9b8f5"/>
  <rect x="175" y="190" width="155" height="10" rx="5" fill="#c9b8f5"/>
  <rect x="175" y="215" width="130" height="10" rx="5" fill="#c9b8f5"/>
  <rect x="175" y="250" width="155" height="10" rx="5" fill="#c9b8f5"/>
  <rect x="175" y="275" width="155" height="10" rx="5" fill="#c9b8f5"/>
  <rect x="175" y="300" width="100" height="10" rx="5" fill="#c9b8f5"/>
  <!-- Передняя обложка -->
  <rect x="148" y="110" width="215" height="290" rx="16" fill="#a060ff"/>
  <!-- Корешок книги -->
  <rect x="130" y="110" width="25" height="290" rx="10" fill="#5a10e0"/>
  <!-- Блик на обложке -->
  <rect x="175" y="135" width="95" height="7" rx="3.5" fill="#ffffff44"/>
  <!-- Буква L -->
  <text x="230" y="310" font-family="Georgia, serif" font-size="130" font-weight="bold" fill="#ffffff" text-anchor="middle" dominant-baseline="middle" opacity="0.95">L</text>
</svg>
